<svg width="32" height="32" viewBox="0 0 32 32" fill="none" xmlns="http://www.w3.org/2000/svg">
<path d="M25.64 20.3465L22.2533 19.9598C21.44 19.8665 20.64 20.1465 20.0667 20.7198L17.6133 23.1732C13.84 21.2532 10.7467 18.1732 8.82666 14.3865L11.2933 11.9198C11.8667 11.3465 12.1467 10.5465 12.0533 9.73318L11.6667 6.37318C11.5067 5.02652 10.3733 4.01318 9.01333 4.01318H6.70666C5.19999 4.01318 3.94666 5.26652 4.03999 6.77318C4.74666 18.1598 13.8533 27.2532 25.2267 27.9598C26.7333 28.0532 27.9867 26.7998 27.9867 25.2932V22.9865C28 21.6398 26.9867 20.5065 25.64 20.3465Z" fill="#00436D"/>
</svg>
