<svg width="32" height="32" viewBox="0 0 32 32" fill="none" xmlns="http://www.w3.org/2000/svg">
<path d="M26.6667 5.3335H5.33333C3.86667 5.3335 2.68 6.5335 2.68 8.00016L2.66667 24.0002C2.66667 25.4668 3.86667 26.6668 5.33333 26.6668H26.6667C28.1333 26.6668 29.3333 25.4668 29.3333 24.0002V8.00016C29.3333 6.5335 28.1333 5.3335 26.6667 5.3335ZM26.1333 11.0002L16.7067 16.8935C16.28 17.1602 15.72 17.1602 15.2933 16.8935L5.86667 11.0002C5.53333 10.7868 5.33333 10.4268 5.33333 10.0402C5.33333 9.14683 6.30667 8.6135 7.06667 9.08016L16 14.6668L24.9333 9.08016C25.6933 8.6135 26.6667 9.14683 26.6667 10.0402C26.6667 10.4268 26.4667 10.7868 26.1333 11.0002Z" fill="#00436D"/>
</svg>
