<svg width="32" height="32" viewBox="0 0 32 32" fill="none" xmlns="http://www.w3.org/2000/svg">
<path d="M15.9867 2.66675C8.62666 2.66675 2.66666 8.64008 2.66666 16.0001C2.66666 23.3601 8.62666 29.3334 15.9867 29.3334C23.36 29.3334 29.3333 23.3601 29.3333 16.0001C29.3333 8.64008 23.36 2.66675 15.9867 2.66675ZM16 26.6667C10.1067 26.6667 5.33332 21.8934 5.33332 16.0001C5.33332 10.1067 10.1067 5.33341 16 5.33341C21.8933 5.33341 26.6667 10.1067 26.6667 16.0001C26.6667 21.8934 21.8933 26.6667 16 26.6667ZM15.7067 9.33341H15.6267C15.0933 9.33341 14.6667 9.76008 14.6667 10.2934V16.5867C14.6667 17.0534 14.9067 17.4934 15.32 17.7334L20.8533 21.0534C21.3067 21.3201 21.8933 21.1867 22.16 20.7334C22.44 20.2801 22.2933 19.6801 21.8267 19.4134L16.6667 16.3467V10.2934C16.6667 9.76008 16.24 9.33341 15.7067 9.33341Z" fill="#00436D"/>
</svg>
