<svg width="140" height="49" viewBox="0 0 140 49" fill="none" xmlns="http://www.w3.org/2000/svg">
<rect x="0.5" y="0.5" width="139" height="48" rx="3.5" fill="white"/>
<rect x="0.5" y="0.5" width="139" height="48" rx="3.5" stroke="#D1D7DB"/>
<path d="M27.4231 16.46H29.1031V34.58H27.4231V16.46ZM28.7031 23.6H32.0631V25H28.7031V23.6ZM15.9631 28.68H17.3831C20.7231 28.68 23.0631 28.56 25.7631 28.06L25.9431 29.46C23.1631 29.98 20.7831 30.08 17.3831 30.08H15.9631V28.68ZM15.9631 18.22H24.3631V19.58H17.6031V29.3H15.9631V18.22ZM33.5816 25.64H49.9816V27H33.5816V25.64ZM41.0616 26.5H42.7416V30.66H41.0616V26.5ZM35.6616 32.78H48.1616V34.16H35.6616V32.78ZM35.6616 28.88H37.3216V33.16H35.6616V28.88ZM41.7616 16.92C45.5816 16.92 48.1016 18.32 48.1016 20.56C48.1016 22.8 45.5816 24.2 41.7616 24.2C37.9216 24.2 35.4216 22.8 35.4216 20.56C35.4216 18.32 37.9216 16.92 41.7616 16.92ZM41.7616 18.28C39.0016 18.28 37.1816 19.16 37.1816 20.56C37.1816 21.98 39.0016 22.84 41.7616 22.84C44.5216 22.84 46.3416 21.98 46.3416 20.56C46.3416 19.16 44.5216 18.28 41.7616 18.28ZM52 30.96H68.38V32.34H52V30.96ZM59.32 27.08H60.98V31.54H59.32V27.08ZM53.98 17.82H66.36V23.3H55.68V26.92H54.04V21.96H64.72V19.16H53.98V17.82ZM54.04 26.22H66.78V27.58H54.04V26.22ZM72.4584 25.14H84.8784V26.5H72.4584V25.14ZM70.3984 30.74H86.7784V32.12H70.3984V30.74ZM72.4584 18.14H84.6984V19.52H74.1184V25.74H72.4584V18.14Z" fill="black"/>
<path d="M119 24V31H105V24H103V31C103 32.1 103.9 33 105 33H119C120.1 33 121 32.1 121 31V24H119ZM113 24.67L115.59 22.09L117 23.5L112 28.5L107 23.5L108.41 22.09L111 24.67V15H113V24.67Z" fill="black"/>
</svg>
