<svg width="28" height="28" viewBox="0 0 28 28" fill="none" xmlns="http://www.w3.org/2000/svg">
<path d="M22.435 17.8033L19.4717 17.465C18.76 17.3833 18.06 17.6283 17.5583 18.13L15.4117 20.2767C12.11 18.5967 9.40332 15.9017 7.72332 12.5883L9.88165 10.43C10.3833 9.92832 10.6283 9.22832 10.5467 8.51666L10.2083 5.57666C10.0683 4.39832 9.07665 3.51166 7.88665 3.51166H5.86832C4.54999 3.51166 3.45332 4.60832 3.53499 5.92666C4.15332 15.89 12.1217 23.8467 22.0733 24.465C23.3917 24.5467 24.4883 23.45 24.4883 22.1317V20.1133C24.5 18.935 23.6133 17.9433 22.435 17.8033Z" fill="white"/>
</svg>
