<svg width="20" height="21" viewBox="0 0 20 21" fill="none" xmlns="http://www.w3.org/2000/svg">
<path d="M19.45 1.08022C18.865 0.495215 17.92 0.495215 17.335 1.08022L9.99996 8.40021L2.66496 1.06521C2.07996 0.480215 1.13496 0.480215 0.549956 1.06521C-0.035044 1.65021 -0.035044 2.59522 0.549956 3.18022L7.88496 10.5152L0.549956 17.8502C-0.035044 18.4352 -0.035044 19.3802 0.549956 19.9652C1.13496 20.5502 2.07996 20.5502 2.66496 19.9652L9.99996 12.6302L17.335 19.9652C17.92 20.5502 18.865 20.5502 19.45 19.9652C20.035 19.3802 20.035 18.4352 19.45 17.8502L12.115 10.5152L19.45 3.18022C20.02 2.61022 20.02 1.65022 19.45 1.08022Z" fill="black"/>
</svg>
