<svg width="60" height="60" viewBox="0 0 60 60" fill="none" xmlns="http://www.w3.org/2000/svg">
<rect width="60" height="60" fill="#1467B0"/>
<path d="M18 39H42C42.825 39 43.5 38.325 43.5 37.5C43.5 36.675 42.825 36 42 36H18C17.175 36 16.5 36.675 16.5 37.5C16.5 38.325 17.175 39 18 39ZM18 31.5H42C42.825 31.5 43.5 30.825 43.5 30C43.5 29.175 42.825 28.5 42 28.5H18C17.175 28.5 16.5 29.175 16.5 30C16.5 30.825 17.175 31.5 18 31.5ZM16.5 22.5C16.5 23.325 17.175 24 18 24H42C42.825 24 43.5 23.325 43.5 22.5C43.5 21.675 42.825 21 42 21H18C17.175 21 16.5 21.675 16.5 22.5Z" fill="white"/>
</svg>
